# xmcd
#
# Track frame offsets:
#	150
#	16279
#	29985
#	45131
#	59617
#	77180
#	91574
#	105795
#	124148
#	135511
#	150964
#	168864
#	186944
#	203271
#
# Disc length: 2930 seconds
#
# Revision: 0
# Processed by: cddbd v1.5.2PL0 Copyright (c) Steve Scherf et al.
# Submitted via: dBpowerAMP V4.0
#
DISCID=9d0b700e
DTITLE=Milionário&JoséRico - As Melhores-CD 2
DYEAR=1900
DGENRE=
TTITLE0=MãeNatureza
TTITLE1=VelhaCanoa
TTITLE2=PaixãoAnônima
TTITLE3=Crise
TTITLE4=MeuMartírio
TTITLE5=BonecaCobiçada
TTITLE6=NoColoDaNoite
TTITLE7=Caminheiro
TTITLE8=60 DiasApaixonado
TTITLE9=SeEuNãoPuderTeEsquecer
TTITLE10=O Vai e Vem Do Carreiro
TTITLE11=PãoDeMel
TTITLE12=QuemDisseQueEsqueçí
TTITLE13=Aprendí a Viver
EXTD=
EXTT0=
EXTT1=
EXTT2=
EXTT3=
EXTT4=
EXTT5=
EXTT6=
EXTT7=
EXTT8=
EXTT9=
EXTT10=
EXTT11=
EXTT12=
EXTT13=
PLAYORDER=
